<?xml version="1.0" encoding="UTF-8"?>
<svg width="200px" height="48px" viewBox="0 0 200 48" version="1.1" xmlns="http://www.w3.org/2000/svg" xmlns:xlink="http://www.w3.org/1999/xlink">
    <!-- Generator: Sketch 50 (54983) - http://www.bohemiancoding.com/sketch -->
    <title>logo</title>
    <desc>Created with Sketch.</desc>
    <defs>
        <radialGradient cx="99.0955882%" cy="97.7460317%" fx="99.0955882%" fy="97.7460317%" r="325.470588%" gradientTransform="translate(0.990956,0.977460),scale(1.000000,0.719577),translate(-0.990956,-0.977460)" id="radialGradient-1">
            <stop stop-color="#BF360C" stop-opacity="0.2" offset="0%"></stop>
            <stop stop-color="#BF360C" stop-opacity="0.02" offset="100%"></stop>
        </radialGradient>
        <radialGradient cx="162.652941%" cy="157.771429%" fx="162.652941%" fy="157.771429%" r="262.488235%" gradientTransform="translate(1.626529,1.577714),scale(1.000000,0.693878),translate(-1.626529,-1.577714)" id="radialGradient-2">
            <stop stop-color="#263238" stop-opacity="0.2" offset="0%"></stop>
            <stop stop-color="#263238" stop-opacity="0.02" offset="100%"></stop>
        </radialGradient>
        <radialGradient cx="-1.2505828%" cy="0.78125%" fx="-1.2505828%" fy="0.78125%" r="168.015799%" gradientTransform="translate(-0.012506,0.007812),scale(1.000000,0.624709),translate(0.012506,-0.007812)" id="radialGradient-3">
            <stop stop-color="#FFFFFF" stop-opacity="0.1" offset="0%"></stop>
            <stop stop-color="#FFFFFF" stop-opacity="0" offset="100%"></stop>
        </radialGradient>
    </defs>
    <g id="Page-1" stroke="none" stroke-width="1" fill="none" fill-rule="evenodd">
        <g id="Custom-Preset" transform="translate(-10.000000, -10.000000)">
            <g id="logo" transform="translate(10.000000, 10.000000)">
                <g id="XMLID_60_">
                    <g id="XMLID_61_">
                        <g id="XMLID_62_">
                            <path d="M29.1992551,21.6014898 L16.6852886,0 L0,0 L13.7802607,23.8361266 L0,47.6722533 L16.6852886,47.6722533 L29.1620112,26.0707635 C29.981378,24.6927374 29.981378,22.9795158 29.1992551,21.6014898 Z" id="XMLID_106_"></path>
                            <polygon id="XMLID_105_" fill="#FFC107" fill-rule="nonzero" points="22.0484171 38.1005587 18.0633147 31.2476723 8.56610801 47.6722533 16.6852886 47.6722533 22.122905 38.2867784"></polygon>
                            <path d="M29.1992551,21.6014898 L16.6852886,0 L0,0 L13.7802607,23.8361266 L0,47.6722533 L16.6852886,47.6722533 L29.1620112,26.0707635 C29.981378,24.6927374 29.981378,22.9795158 29.1992551,21.6014898 Z" id="XMLID_104_"></path>
                            <polygon id="XMLID_103_" fill="#0F9D58" fill-rule="nonzero" points="13.7802607 23.8361266 18.0633147 31.2476723 8.56610801 47.6722533 0 47.6722533"></polygon>
                            <path d="M29.1992551,21.6014898 L16.6852886,0 L0,0 L13.7802607,23.8361266 L0,47.6722533 L16.6852886,47.6722533 L29.1620112,26.0707635 C29.981378,24.6927374 29.981378,22.9795158 29.1992551,21.6014898 Z" id="XMLID_102_"></path>
                            <polygon id="XMLID_101_" fill="#BF360C" fill-rule="nonzero" opacity="0.2" points="16.6852886 47.2998138 8.78957169 47.2998138 8.56610801 47.6722533 16.6852886 47.6722533 22.122905 38.2867784 22.0484171 38.1005587"></polygon>
                            <path d="M29.1992551,21.6014898 L16.6852886,0 L0,0 L13.7802607,23.8361266 L0,47.6722533 L16.6852886,47.6722533 L29.1620112,26.0707635 C29.981378,24.6927374 29.981378,22.9795158 29.1992551,21.6014898 Z" id="XMLID_100_"></path>
                            <polygon id="XMLID_99_" fill="#263238" fill-rule="nonzero" opacity="0.2" points="0.223463687 47.2998138 0 47.7998138 8.56610801 47.7998138 8.78957169 47.2998138"></polygon>
                            <path d="M29.1992551,21.6014898 L16.6852886,0 L0,0 L13.7802607,23.8361266 L0,47.6722533 L16.6852886,47.6722533 L29.1620112,26.0707635 C29.981378,24.6927374 29.981378,22.9795158 29.1992551,21.6014898 Z" id="XMLID_98_"></path>
                            <polygon id="XMLID_96_" fill="#FFFFFF" fill-rule="nonzero" opacity="0.2" points="0 47.6722533 0.223463687 47.6722533 13.8919926 24.0223464 13.7802607 23.8361266"></polygon>
                            <path d="M29.1992551,21.6014898 L16.6852886,0 L0,0 L13.7802607,23.8361266 L0,47.6722533 L16.6852886,47.6722533 L29.1620112,26.0707635 C29.981378,24.6927374 29.981378,22.9795158 29.1992551,21.6014898 Z" id="XMLID_94_"></path>
                            <polygon id="XMLID_92_" fill="url(#radialGradient-1)" fill-rule="nonzero" points="22.122905 38.2867784 18.0633147 31.2476723 17.0577281 32.9608939"></polygon>
                            <path d="M29.1992551,21.6014898 L16.6852886,0 L0,0 L13.7802607,23.8361266 L0,47.6722533 L16.6852886,47.6722533 L29.1620112,26.0707635 C29.981378,24.6927374 29.981378,22.9795158 29.1992551,21.6014898 Z" id="XMLID_90_"></path>
                            <polygon id="XMLID_89_" fill="url(#radialGradient-2)" fill-rule="nonzero" points="17.0577281 32.9608939 18.0633147 31.2476723 13.7802607 23.8361266 11.7318436 27.3743017"></polygon>
                            <path d="M29.1992551,21.6014898 L16.6852886,0 L0,0 L13.7802607,23.8361266 L0,47.6722533 L16.6852886,47.6722533 L29.1620112,26.0707635 C29.981378,24.6927374 29.981378,22.9795158 29.1992551,21.6014898 Z" id="XMLID_88_"></path>
                            <g id="XMLID_85_" fill="#4285F4" fill-rule="nonzero">
                                <g id="XMLID_86_">
                                    <polygon id="XMLID_87_" points="8.56610801 0 0 0 22.122905 38.2867784 26.405959 30.8752328"></polygon>
                                </g>
                            </g>
                            <path d="M29.1992551,21.6014898 L16.6852886,0 L0,0 L13.7802607,23.8361266 L0,47.6722533 L16.6852886,47.6722533 L29.1620112,26.0707635 C29.981378,24.6927374 29.981378,22.9795158 29.1992551,21.6014898 Z" id="XMLID_84_"></path>
                            <path d="M29.1992551,26.0707635 C29.981378,24.6927374 29.981378,22.9795158 29.1992551,21.6014898 L16.6852886,0 L8.56610801,0 L26.405959,30.8752328 L29.1992551,26.0707635 Z" id="XMLID_83_" fill="#DB4437" fill-rule="nonzero"></path>
                            <path d="M29.1992551,21.6014898 L16.6852886,0 L0,0 L13.7802607,23.8361266 L0,47.6722533 L16.6852886,47.6722533 L29.1620112,26.0707635 C29.981378,24.6927374 29.981378,22.9795158 29.1992551,21.6014898 Z" id="XMLID_82_"></path>
                            <polygon id="XMLID_71_" fill="#1A237E" fill-rule="nonzero" opacity="0.2" points="26.405959 30.8752328 26.3314711 30.689013 22.122905 37.9143389 0.223463687 0 0 0 22.122905 38.2867784"></polygon>
                            <path d="M29.1992551,21.6014898 L16.6852886,0 L0,0 L13.7802607,23.8361266 L0,47.6722533 L16.6852886,47.6722533 L29.1620112,26.0707635 C29.981378,24.6927374 29.981378,22.9795158 29.1992551,21.6014898 Z" id="XMLID_69_"></path>
                            <path d="M16.6852886,0.372439479 L29.1620112,21.9739292 C29.5344507,22.6070764 29.7206704,23.3147114 29.7579143,24.0223464 C29.7951583,23.2029795 29.6089385,22.3463687 29.1620112,21.6014898 L16.6852886,0 L0,0 L0.223463687,0.372439479 L16.6852886,0.372439479 Z" id="XMLID_67_" fill="#FFFFFF" fill-rule="nonzero" opacity="0.2"></path>
                            <path d="M29.1992551,21.6014898 L16.6852886,0 L0,0 L13.7802607,23.8361266 L0,47.6722533 L16.6852886,47.6722533 L29.1620112,26.0707635 C29.981378,24.6927374 29.981378,22.9795158 29.1992551,21.6014898 Z" id="XMLID_66_"></path>
                            <path d="M26.405959,30.8752328 L29.1992551,26.0707635 C29.6461825,25.3258845 29.8324022,24.4692737 29.7951583,23.6499069 C29.7579143,24.3575419 29.5716946,25.0651769 29.1992551,25.698324 L26.3314711,30.689013 L26.405959,30.8752328 Z" id="XMLID_65_" fill="#3E2723" fill-rule="nonzero" opacity="0.2"></path>
                            <path d="M29.1992551,21.6014898 L16.6852886,0 L0,0 L13.7802607,23.8361266 L0,47.6722533 L16.6852886,47.6722533 L29.1620112,26.0707635 C29.981378,24.6927374 29.981378,22.9795158 29.1992551,21.6014898 Z" id="XMLID_64_"></path>
                            <path d="M29.1992551,21.6014898 L16.6852886,0 L0,0 L13.7802607,23.8361266 L0,47.6722533 L16.6852886,47.6722533 L29.1620112,26.0707635 C29.981378,24.6927374 29.981378,22.9795158 29.1992551,21.6014898 Z" id="XMLID_63_" fill="url(#radialGradient-3)" fill-rule="nonzero"></path>
                        </g>
                    </g>
                </g>
                <g id="XMLID_7_" transform="translate(46.182495, 1.489758)" fill="#FFFFFF">
                    <path d="M19.4785847,10.8752328 C19.4785847,13.4823091 18.6964618,15.5679702 17.16946,17.0949721 C15.4189944,18.9199255 13.1098696,19.8510242 10.3165736,19.8510242 C7.63500931,19.8510242 5.32588454,18.9199255 3.46368715,17.0577281 C1.56424581,15.1955307 0.633147114,12.886406 0.633147114,10.0931099 C0.633147114,7.29981378 1.56424581,5.02793296 3.46368715,3.12849162 C5.36312849,1.26629423 7.63500931,0.335195531 10.3165736,0.335195531 C11.6573557,0.335195531 12.9236499,0.595903166 14.1527002,1.11731844 C15.3817505,1.63873371 16.3500931,2.34636872 17.0577281,3.20297952 L15.4189944,4.84171322 C14.1899441,3.35195531 12.4767225,2.60707635 10.3165736,2.60707635 C8.34264432,2.60707635 6.66666667,3.31471136 5.2141527,4.69273743 C3.79888268,6.0707635 3.05400372,7.858473 3.05400372,10.0931099 C3.05400372,12.2905028 3.76163873,14.0782123 5.2141527,15.4934823 C6.66666667,16.8715084 8.34264432,17.5791434 10.3165736,17.5791434 C12.4022346,17.5791434 14.1527002,16.8715084 15.5307263,15.4934823 C16.424581,14.5996276 16.9459963,13.3333333 17.0949721,11.7318436 L10.3165736,11.7318436 L10.3165736,9.4972067 L19.3668529,9.4972067 C19.4413408,9.94413408 19.4785847,10.4283054 19.4785847,10.8752328 Z M21.8621974,19.4413408 L21.8621974,0.782122905 L27.5605214,0.782122905 C30.4283054,0.782122905 32.7374302,1.63873371 34.4506518,3.38919926 C36.1638734,5.10242086 37.0204842,7.37430168 37.0204842,10.1303538 C37.0204842,12.886406 36.1638734,15.1582868 34.4506518,16.8715084 C32.7374302,18.58473 30.4283054,19.4785847 27.5605214,19.4785847 L21.8621974,19.4785847 L21.8621974,19.4413408 Z M24.2458101,17.132216 L27.5605214,17.132216 C29.7206704,17.132216 31.433892,16.4990689 32.7001862,15.2700186 C33.9664804,14.0409683 34.5996276,12.2905028 34.5996276,10.0931099 C34.5996276,7.89571695 33.9664804,6.1452514 32.7001862,4.91620112 C31.433892,3.68715084 29.7206704,3.05400372 27.5605214,3.05400372 L24.2458101,3.05400372 L24.2458101,17.132216 Z M57.3929236,10.8752328 C57.3929236,13.4823091 56.6108007,15.5679702 55.0837989,17.0949721 C53.3333333,18.9199255 51.0242086,19.8510242 48.2309125,19.8510242 C45.5493482,19.8510242 43.2402235,18.9199255 41.3780261,17.0577281 C39.4785847,15.1955307 38.547486,12.886406 38.547486,10.0931099 C38.547486,7.29981378 39.4785847,5.02793296 41.3780261,3.12849162 C43.2774674,1.26629423 45.5493482,0.335195531 48.2309125,0.335195531 C49.5716946,0.335195531 50.8379888,0.595903166 52.0670391,1.11731844 C53.2960894,1.63873371 54.264432,2.34636872 54.972067,3.20297952 L53.3333333,4.84171322 C52.1042831,3.35195531 50.3910615,2.60707635 48.2309125,2.60707635 C46.2569832,2.60707635 44.5810056,3.31471136 43.1284916,4.69273743 C41.7132216,6.0707635 40.9683426,7.858473 40.9683426,10.0931099 C40.9683426,12.2905028 41.6759777,14.0782123 43.1284916,15.4934823 C44.5810056,16.8715084 46.2569832,17.5791434 48.2309125,17.5791434 C50.3165736,17.5791434 52.0670391,16.8715084 53.4450652,15.4934823 C54.3389199,14.5996276 54.8603352,13.3333333 55.009311,11.7318436 L48.2309125,11.7318436 L48.2309125,9.4972067 L57.2811918,9.4972067 C57.3556797,9.94413408 57.3929236,10.4283054 57.3929236,10.8752328 Z M66.0335196,19.4413408 L66.0335196,0.782122905 L71.7318436,0.782122905 C74.5996276,0.782122905 76.9087523,1.63873371 78.6219739,3.38919926 C80.3351955,5.10242086 81.1918063,7.37430168 81.1918063,10.1303538 C81.1918063,12.886406 80.3351955,15.1582868 78.6219739,16.8715084 C76.9087523,18.58473 74.5996276,19.4785847 71.7318436,19.4785847 L66.0335196,19.4785847 L66.0335196,19.4413408 Z M68.4543762,17.132216 L71.7690875,17.132216 C73.9292365,17.132216 75.6424581,16.4990689 76.9087523,15.2700186 C78.1750466,14.0409683 78.8081937,12.2905028 78.8081937,10.0931099 C78.8081937,7.89571695 78.1750466,6.1452514 76.9087523,4.91620112 C75.6424581,3.68715084 73.9292365,3.05400372 71.7690875,3.05400372 L68.4543762,3.05400372 L68.4543762,17.132216 Z M89.0502793,19.8510242 C87.113594,19.8510242 85.5493482,19.2178771 84.3575419,17.9143389 C83.1657356,16.6108007 82.5325885,15.009311 82.5325885,13.0353818 C82.5325885,11.1731844 83.1284916,9.5716946 84.283054,8.23091248 C85.4376164,6.89013035 86.9646182,6.21973929 88.7895717,6.21973929 C90.689013,6.21973929 92.2160149,6.85288641 93.3333333,8.08193669 C94.4878957,9.31098696 95.0465549,10.9497207 95.0465549,13.0353818 L95.009311,13.4823091 L84.9162011,13.4823091 C84.990689,14.7858473 85.4003724,15.7914339 86.2197393,16.5363128 C87.0018622,17.2811918 87.9329609,17.6536313 89.0130354,17.6536313 C90.726257,17.6536313 91.8808194,16.9087523 92.5139665,15.4562384 L94.6368715,16.3500931 C94.2271881,17.3556797 93.5195531,18.1750466 92.5884544,18.8454376 C91.6201117,19.5158287 90.4655493,19.8510242 89.0502793,19.8510242 Z M92.5139665,11.5083799 C92.4767225,10.7635009 92.141527,10.0931099 91.5083799,9.42271881 C90.8752328,8.75232775 89.981378,8.41713222 88.7523277,8.41713222 C87.858473,8.41713222 87.113594,8.67783985 86.443203,9.23649907 C85.7728119,9.79515829 85.3258845,10.5400372 85.1024209,11.4711359 L92.5139665,11.4711359 L92.5139665,11.5083799 Z M100.111732,19.4413408 L94.9348231,6.66666667 L97.5418994,6.66666667 L101.303538,16.5735568 L101.340782,16.5735568 L105.139665,6.66666667 L107.709497,6.66666667 L102.495345,19.4413408 L100.111732,19.4413408 Z M111.50838,19.4413408 L109.124767,19.4413408 L109.124767,0.782122905 L120.037244,0.782122905 L120.037244,3.09124767 L111.545624,3.09124767 L111.545624,9.23649907 L119.180633,9.23649907 L119.180633,11.4711359 L111.50838,11.4711359 L111.50838,19.4413408 Z M127.26257,19.8510242 C125.325885,19.8510242 123.761639,19.2178771 122.569832,17.9143389 C121.378026,16.6108007 120.744879,15.009311 120.744879,13.0353818 C120.744879,11.1731844 121.340782,9.5716946 122.495345,8.23091248 C123.687151,6.89013035 125.176909,6.21973929 127.001862,6.21973929 C128.901304,6.21973929 130.428305,6.85288641 131.545624,8.08193669 C132.700186,9.31098696 133.258845,10.9497207 133.258845,13.0353818 L133.221601,13.4823091 L123.128492,13.4823091 C123.20298,14.7858473 123.612663,15.7914339 124.43203,16.5363128 C125.214153,17.2811918 126.145251,17.6536313 127.225326,17.6536313 C128.938547,17.6536313 130.09311,16.9087523 130.726257,15.4562384 L132.849162,16.3500931 C132.439479,17.3556797 131.731844,18.1750466 130.800745,18.8454376 C129.832402,19.5158287 128.640596,19.8510242 127.26257,19.8510242 Z M130.689013,11.5083799 C130.651769,10.7635009 130.316574,10.0931099 129.683426,9.42271881 C129.050279,8.75232775 128.156425,8.41713222 126.927374,8.41713222 C126.03352,8.41713222 125.288641,8.67783985 124.61825,9.23649907 C123.947858,9.79515829 123.500931,10.5400372 123.277467,11.4711359 L130.689013,11.4711359 L130.689013,11.5083799 Z M139.627561,19.8510242 C138.212291,19.8510242 137.020484,19.5158287 136.089385,18.8081937 C135.158287,18.1005587 134.487896,17.2439479 134.040968,16.2011173 L136.163873,15.3072626 C136.834264,16.9087523 137.988827,17.6908752 139.627561,17.6908752 C140.372439,17.6908752 141.005587,17.5418994 141.452514,17.2067039 C141.936685,16.8715084 142.160149,16.424581 142.160149,15.9031657 C142.160149,15.0837989 141.564246,14.4878957 140.409683,14.2271881 L137.839851,13.594041 C137.020484,13.3705773 136.238361,12.9981378 135.530726,12.4022346 C134.785847,11.8063315 134.450652,11.0242086 134.450652,10.0558659 C134.450652,8.93854749 134.934823,8.00744879 135.94041,7.29981378 C136.945996,6.59217877 138.137803,6.25698324 139.515829,6.25698324 C140.633147,6.25698324 141.638734,6.51769088 142.532588,7.03910615 C143.426443,7.56052142 144.05959,8.26815642 144.43203,9.23649907 L142.346369,10.0931099 C141.862197,8.97579143 140.893855,8.37988827 139.441341,8.37988827 C138.733706,8.37988827 138.137803,8.52886406 137.653631,8.82681564 C137.16946,9.12476723 136.908752,9.53445065 136.908752,10.018622 C136.908752,10.7635009 137.467412,11.2476723 138.58473,11.5083799 L141.117318,12.1042831 C142.309125,12.3649907 143.20298,12.849162 143.761639,13.556797 C144.320298,14.2271881 144.61825,15.009311 144.61825,15.8659218 C144.61825,17.0204842 144.134078,17.9515829 143.20298,18.7337058 C142.309125,19.4785847 141.117318,19.8510242 139.627561,19.8510242 Z M151.880819,19.6648045 C150.540037,19.6648045 149.534451,19.292365 148.826816,18.58473 C148.119181,17.877095 147.783985,16.8715084 147.783985,15.5679702 L147.783985,8.86405959 L145.549348,8.86405959 L145.549348,6.66666667 L147.783985,6.66666667 L147.783985,2.75605214 L150.167598,2.75605214 L150.167598,6.66666667 L153.296089,6.66666667 L153.296089,8.86405959 L150.167598,8.86405959 L150.167598,15.3817505 C150.167598,16.7597765 150.726257,17.4674115 151.880819,17.4674115 C152.327747,17.4674115 152.662942,17.3929236 152.960894,17.2439479 L153.780261,19.292365 C153.258845,19.5530726 152.625698,19.6648045 151.880819,19.6648045 Z M6.77839851,44.4320298 C5.43761639,44.4320298 4.09683426,43.9851024 2.79329609,43.0912477 C1.48975791,42.1973929 0.633147114,40.9683426 0.260707635,39.3668529 L2.45810056,38.4729981 C2.71880819,39.5158287 3.24022346,40.3724395 4.05959032,41.0800745 C4.87895717,41.7877095 5.77281192,42.122905 6.77839851,42.122905 C7.82122905,42.122905 8.7150838,41.8621974 9.45996276,41.3035382 C10.2048417,40.744879 10.5772812,40 10.5772812,39.0689013 C10.5772812,38.0260708 10.2048417,37.2067039 9.45996276,36.6480447 C8.7150838,36.0893855 7.56052142,35.5679702 5.95903166,35.0837989 C4.32029795,34.5623836 3.05400372,33.8919926 2.19739292,33.0726257 C1.34078212,32.2532588 0.931098696,31.1731844 0.931098696,29.9068901 C0.931098696,28.566108 1.45251397,27.4115456 2.53258845,26.405959 C3.57541899,25.4003724 4.99068901,24.9162011 6.66666667,24.9162011 C8.23091248,24.9162011 9.53445065,25.3258845 10.5400372,26.1080074 C11.5456238,26.8901304 12.1787709,27.7467412 12.4767225,28.7150838 L10.2793296,29.6089385 C10.1303538,29.0130354 9.72067039,28.4543762 9.12476723,27.9702048 C8.49162011,27.4487896 7.70949721,27.2253259 6.74115456,27.2253259 C5.81005587,27.2253259 5.02793296,27.4860335 4.39478585,28.0074488 C3.72439479,28.5288641 3.4264432,29.1620112 3.4264432,29.9068901 C3.4264432,30.6145251 3.72439479,31.1731844 4.32029795,31.6573557 C4.91620112,32.141527 5.81005587,32.5512104 6.96461825,32.9608939 C7.89571695,33.2588454 8.6405959,33.556797 9.27374302,33.8175047 C9.90689013,34.0782123 10.5027933,34.4506518 11.1359404,34.9348231 C11.7690875,35.3817505 12.2532588,35.9776536 12.5884544,36.6480447 C12.9236499,37.3184358 13.0726257,38.1378026 13.0726257,39.0316574 C13.0726257,39.9255121 12.886406,40.744879 12.5139665,41.452514 C12.141527,42.160149 11.6573557,42.7188082 11.0242086,43.1284916 C10.3910615,43.538175 9.75791434,43.8733706 9.01303538,44.0968343 C8.26815642,44.320298 7.52327747,44.4320298 6.77839851,44.4320298 Z M20.8938547,44.4320298 C18.9571695,44.4320298 17.3929236,43.7988827 16.2011173,42.4953445 C15.009311,41.1918063 14.3761639,39.5903166 14.3761639,37.6163873 C14.3761639,35.7541899 14.972067,34.1527002 16.1266294,32.8119181 C17.2811918,31.4711359 18.8081937,30.8007449 20.6331471,30.8007449 C22.5325885,30.8007449 24.0595903,31.433892 25.1769088,32.6629423 C26.3314711,33.8919926 26.8901304,35.5307263 26.8901304,37.6163873 L26.8528864,38.0633147 L16.7597765,38.0633147 C16.8342644,39.3668529 17.2439479,40.3724395 18.0633147,41.1173184 C18.8454376,41.8621974 19.7765363,42.2346369 20.8566108,42.2346369 C22.5698324,42.2346369 23.7243948,41.4897579 24.3575419,40.0372439 L26.4804469,40.9310987 C26.0707635,41.9366853 25.3631285,42.7560521 24.4320298,43.4264432 C23.4636872,44.0968343 22.2718808,44.4320298 20.8938547,44.4320298 Z M24.320298,36.0893855 C24.283054,35.3445065 23.9478585,34.6741155 23.3147114,34.0037244 C22.6815642,33.3333333 21.7877095,32.9981378 20.5586592,32.9981378 C19.6648045,32.9981378 18.9199255,33.2588454 18.2495345,33.8175047 C17.5791434,34.3761639 17.132216,35.1210428 16.9087523,36.0521415 L24.320298,36.0521415 L24.320298,36.0893855 Z M32.5512104,44.4320298 C31.2104283,44.4320298 30.0558659,44.0223464 29.1620112,43.2774674 C28.2681564,42.4953445 27.7839851,41.452514 27.7839851,40.1862197 C27.7839851,38.8081937 28.3054004,37.6908752 29.3854749,36.9087523 C30.4655493,36.1266294 31.8063315,35.716946 33.3705773,35.716946 C34.7858473,35.716946 35.9404097,35.9776536 36.8342644,36.4990689 L36.8342644,36.1266294 C36.8342644,35.1955307 36.4990689,34.4506518 35.8659218,33.8547486 C35.2327747,33.2960894 34.4134078,32.9981378 33.4823091,32.9981378 C32.7746741,32.9981378 32.141527,33.1471136 31.5828678,33.4823091 C31.0242086,33.8175047 30.6145251,34.264432 30.4283054,34.8230912 L28.2309125,33.8919926 C28.5288641,33.1098696 29.1247672,32.4022346 29.981378,31.7690875 C30.8379888,31.0986965 31.9925512,30.8007449 33.4078212,30.8007449 C35.0465549,30.8007449 36.3873371,31.2849162 37.4674115,32.2532588 C38.547486,33.2216015 39.0689013,34.5623836 39.0689013,36.2756052 L39.0689013,43.9851024 L36.8715084,43.9851024 L36.8715084,42.1973929 L36.7597765,42.1973929 C35.7914339,43.7243948 34.3761639,44.4320298 32.5512104,44.4320298 Z M32.9608939,42.2346369 C33.9664804,42.2346369 34.8603352,41.8621974 35.6424581,41.1173184 C36.461825,40.3724395 36.8715084,39.5158287 36.8715084,38.5102421 C36.2011173,37.9515829 35.1955307,37.6908752 33.8175047,37.6908752 C32.6629423,37.6908752 31.7690875,37.9515829 31.1731844,38.4357542 C30.5772812,38.9571695 30.2793296,39.5158287 30.2793296,40.2234637 C30.2793296,40.8566108 30.5400372,41.3407821 31.0986965,41.7132216 C31.6201117,42.0484171 32.2532588,42.2346369 32.9608939,42.2346369 Z M46.0707635,44.4320298 C44.6554935,44.4320298 43.4636872,44.0968343 42.5325885,43.3891993 C41.6014898,42.6815642 40.9310987,41.8249534 40.4841713,40.7821229 L42.6070764,39.8882682 C43.2774674,41.4897579 44.4320298,42.2718808 46.0707635,42.2718808 C46.8156425,42.2718808 47.4487896,42.122905 47.8957169,41.7877095 C48.3798883,41.452514 48.603352,41.0055866 48.603352,40.4841713 C48.603352,39.6648045 48.0074488,39.0689013 46.8528864,38.8081937 L44.283054,38.1750466 C43.4636872,37.9515829 42.6815642,37.5791434 41.9739292,36.9832402 C41.2290503,36.3873371 40.8938547,35.6052142 40.8938547,34.6368715 C40.8938547,33.5195531 41.3780261,32.5884544 42.3836127,31.8808194 C43.3891993,31.1731844 44.5810056,30.8379888 45.9590317,30.8379888 C47.0763501,30.8379888 48.0819367,31.0986965 48.9757914,31.6201117 C49.8696462,32.141527 50.5027933,32.849162 50.8752328,33.8175047 L48.7895717,34.6741155 C48.3054004,33.556797 47.3370577,32.9608939 45.8845438,32.9608939 C45.1769088,32.9608939 44.5810056,33.1098696 44.0968343,33.4078212 C43.6126629,33.7057728 43.3519553,34.1154562 43.3519553,34.5996276 C43.3519553,35.3445065 43.9106145,35.8286778 45.0651769,36.0893855 L47.5977654,36.6852886 C48.7895717,36.9459963 49.6834264,37.4301676 50.2420857,38.1378026 C50.8007449,38.8081937 51.0986965,39.5903166 51.0986965,40.4469274 C51.0986965,41.6014898 50.6145251,42.5325885 49.6834264,43.3147114 C48.7523277,44.0595903 47.5232775,44.4320298 46.0707635,44.4320298 Z M53.8547486,32.7746741 C55.0837989,31.4711359 56.6480447,30.8379888 58.58473,30.8379888 C60.4841713,30.8379888 62.0856611,31.4711359 63.3147114,32.7746741 C64.5437616,34.0782123 65.1769088,35.679702 65.1769088,37.6536313 C65.1769088,39.5903166 64.5437616,41.2290503 63.3147114,42.5325885 C62.0856611,43.8361266 60.5214153,44.4692737 58.58473,44.4692737 C56.6852886,44.4692737 55.0837989,43.8361266 53.8547486,42.5325885 C52.6256983,41.2290503 51.9925512,39.6275605 51.9925512,37.6536313 C51.9925512,35.679702 52.6256983,34.0782123 53.8547486,32.7746741 Z M55.6424581,40.9683426 C56.461825,41.8249534 57.4301676,42.2346369 58.58473,42.2346369 C59.7020484,42.2346369 60.707635,41.8249534 61.5270019,40.9683426 C62.3463687,40.1117318 62.7560521,38.9944134 62.7560521,37.6163873 C62.7560521,36.2383613 62.3463687,35.1210428 61.5270019,34.264432 C60.707635,33.4078212 59.7392924,32.9981378 58.58473,32.9981378 C57.4674115,32.9981378 56.461825,33.4078212 55.6424581,34.264432 C54.8230912,35.1210428 54.4134078,36.2383613 54.4134078,37.6163873 C54.4134078,39.0316574 54.8230912,40.1489758 55.6424581,40.9683426 Z M69.1620112,31.2476723 L69.1620112,33.0353818 L69.273743,33.0353818 C69.6089385,32.4394786 70.1675978,31.9180633 70.9124767,31.4711359 C71.6573557,31.0614525 72.4767225,30.8379888 73.2960894,30.8379888 C74.8603352,30.8379888 76.0893855,31.3221601 76.9087523,32.2905028 C77.7281192,33.2588454 78.1750466,34.5623836 78.1750466,36.2011173 L78.1750466,44.0223464 L75.7914339,44.0223464 L75.7914339,36.5735568 C75.7914339,34.2271881 74.7486034,33.0353818 72.6256983,33.0353818 C71.6201117,33.0353818 70.8379888,33.4450652 70.2048417,34.2271881 C69.5716946,35.009311 69.273743,35.9404097 69.273743,36.9832402 L69.273743,44.0595903 L66.8901304,44.0595903 L66.8901304,31.2476723 L69.1620112,31.2476723 Z M97.6536313,44.0223464 L86.2942272,44.0223464 L86.2942272,41.6387337 C89.6834264,38.2122905 91.8808194,35.9776536 92.849162,34.9348231 C93.7057728,33.9664804 94.264432,33.2588454 94.5623836,32.7746741 C94.8603352,32.2905028 95.009311,31.6573557 95.009311,30.9497207 C95.009311,30.2048417 94.7113594,29.5344507 94.1154562,28.9757914 C93.5195531,28.4171322 92.7374302,28.1191806 91.7318436,28.1191806 C90.8379888,28.1191806 90.0931099,28.3798883 89.5344507,28.9013035 C88.9757914,29.4227188 88.6405959,30.018622 88.4543762,30.6145251 L86.2569832,29.7206704 C86.5549348,28.7895717 87.1880819,27.8957169 88.1191806,27.0763501 C89.0502793,26.2569832 90.2793296,25.8100559 91.7690875,25.8100559 C93.4078212,25.8100559 94.7858473,26.3314711 95.8286778,27.3370577 C96.8715084,28.3426443 97.4301676,29.5344507 97.4301676,30.9497207 C97.4301676,32.7001862 96.4990689,34.5623836 94.5996276,36.5363128 L89.3854749,41.7132216 L97.6536313,41.7132216 L97.6536313,44.0223464 Z M111.396648,41.7504655 C110.09311,43.538175 108.342644,44.4320298 106.219739,44.4320298 C104.096834,44.4320298 102.346369,43.538175 101.042831,41.7504655 C99.7392924,39.9627561 99.0689013,37.7281192 99.0689013,35.0837989 C99.0689013,32.4394786 99.7392924,30.2048417 101.042831,28.4171322 C102.346369,26.6294227 104.096834,25.735568 106.219739,25.735568 C108.342644,25.735568 110.09311,26.6294227 111.396648,28.4171322 C112.700186,30.2048417 113.370577,32.4022346 113.370577,35.0837989 C113.370577,37.7653631 112.73743,39.9627561 111.396648,41.7504655 Z M106.219739,42.160149 C107.635009,42.160149 108.789572,41.4897579 109.646182,40.1489758 C110.502793,38.8081937 110.949721,37.132216 110.949721,35.1210428 C110.949721,33.0726257 110.502793,31.396648 109.646182,30.0931099 C108.789572,28.7523277 107.635009,28.0819367 106.219739,28.0819367 C104.767225,28.0819367 103.612663,28.7523277 102.793296,30.0931099 C101.936685,31.433892 101.527002,33.1098696 101.527002,35.1210428 C101.527002,37.132216 101.936685,38.8081937 102.793296,40.1489758 C103.612663,41.4897579 104.767225,42.160149 106.219739,42.160149 Z M121.005587,44.0223464 L118.621974,44.0223464 L118.621974,29.1620112 L115.158287,30.689013 L114.227188,28.6405959 L119.478585,26.1824953 L121.005587,26.1824953 L121.005587,44.0223464 Z" id="Shape" fill-rule="nonzero"></path>
                    <text id="8" font-family="Roboto-Regular, Roboto" font-size="26" font-weight="normal">
                        <tspan x="124.213741" y="44.7188082">8</tspan>
                    </text>
                </g>
            </g>
        </g>
    </g>
</svg>