<?xml version="1.0" encoding="UTF-8"?>
<svg width="126px" height="32px" viewBox="0 0 126 32" version="1.1" xmlns="http://www.w3.org/2000/svg" xmlns:xlink="http://www.w3.org/1999/xlink">
    <!-- Generator: Sketch 50 (54983) - http://www.bohemiancoding.com/sketch -->
    <title>logo-monochrome</title>
    <desc>Created with Sketch.</desc>
    <defs></defs>
    <g id="Page-1" stroke="none" stroke-width="1" fill="none" fill-rule="evenodd">
        <g id="logo-monochrome" fill="#673AB7">
            <path d="M41.5012419,7.86799431 C41.5012419,9.60455192 41.0213909,11.0065434 40.0466936,12.0261735 C38.9370382,13.2529161 37.4974853,13.8742532 35.7280348,13.8742532 C34.033561,13.8742532 32.5940081,13.2529161 31.409376,11.9943101 C30.2247439,10.7516358 29.6249301,9.19032717 29.6249301,7.35817923 C29.6249301,5.52603129 30.2247439,3.96472262 31.409376,2.72204836 C32.5940081,1.47937411 34.033561,0.842105263 35.7280348,0.842105263 C36.567774,0.842105263 37.3775225,1.0173542 38.142285,1.36785206 C38.9070475,1.71834993 39.5218566,2.18036984 39.9717169,2.76984353 L38.9370382,3.86913229 C38.1572803,2.88136558 37.092611,2.38748222 35.7280348,2.38748222 C34.4984166,2.38748222 33.4187519,2.84950213 32.5190314,3.77354196 C31.6193108,4.69758179 31.1694505,5.89246088 31.1694505,7.37411095 C31.1694505,8.85576102 31.6193108,10.0506401 32.5190314,10.9746799 C33.4187519,11.8987198 34.4834213,12.3607397 35.7280348,12.3607397 C37.047625,12.3607397 38.1272897,11.8987198 39.0120149,10.9587482 C39.5818379,10.3533428 39.9117355,9.50896159 40.0017075,8.42560455 L35.7280348,8.42560455 L35.7280348,6.92802276 L41.4262651,6.92802276 C41.4712512,7.2625889 41.5012419,7.56529161 41.5012419,7.86799431 Z M42.9857808,13.6034139 L42.9857808,1.12887624 L46.5846631,1.12887624 C48.3841043,1.12887624 49.8386526,1.70241821 50.9183173,2.86543385 C51.997982,4.0284495 52.5378143,5.52603129 52.5378143,7.37411095 C52.5378143,9.22219061 51.997982,10.7197724 50.9183173,11.8827881 C49.8386526,13.0458037 48.3990997,13.6193457 46.5846631,13.6193457 L42.9857808,13.6034139 Z M44.5003105,12.0739687 L46.5846631,12.0739687 C47.934244,12.0739687 49.0139087,11.659744 49.8086619,10.8312945 C50.6034151,10.002845 50.993294,8.85576102 50.993294,7.35817923 C50.993294,5.87652916 50.6034151,4.72944523 49.8086619,3.90099573 C49.0139087,3.07254623 47.934244,2.65832148 46.5846631,2.65832148 L44.5003105,2.65832148 L44.5003105,12.0739687 Z M65.3438373,7.86799431 C65.3438373,9.60455192 64.8639863,11.0065434 63.889289,12.0261735 C62.7796337,13.2529161 61.3400807,13.8742532 59.5706302,13.8742532 C57.8761565,13.8742532 56.4366035,13.2529161 55.2519714,11.9943101 C54.0673393,10.7516358 53.4675256,9.19032717 53.4675256,7.35817923 C53.4675256,5.52603129 54.0673393,3.96472262 55.2519714,2.72204836 C56.4366035,1.47937411 57.8761565,0.842105263 59.5706302,0.842105263 C60.4103695,0.842105263 61.220118,1.0173542 61.9848805,1.36785206 C62.749643,1.71834993 63.364452,2.18036984 63.8143123,2.76984353 L62.7796337,3.86913229 C61.9998758,2.88136558 60.9352065,2.38748222 59.5706302,2.38748222 C58.3410121,2.38748222 57.2613474,2.84950213 56.3616268,3.77354196 C55.4619062,4.69758179 55.0120459,5.89246088 55.0120459,7.37411095 C55.0120459,8.85576102 55.4619062,10.0506401 56.3616268,10.9746799 C57.2613474,11.8987198 58.3260168,12.3607397 59.5706302,12.3607397 C60.8902204,12.3607397 61.9698851,11.8987198 62.8546104,10.9587482 C63.4244334,10.3533428 63.754331,9.50896159 63.844303,8.42560455 L59.5706302,8.42560455 L59.5706302,6.92802276 L65.2688606,6.92802276 C65.3138466,7.2625889 65.3438373,7.56529161 65.3438373,7.86799431 Z M70.7871468,13.6034139 L70.7871468,1.12887624 L74.3860292,1.12887624 C76.1854704,1.12887624 77.6400186,1.70241821 78.7196833,2.86543385 C79.799348,4.0284495 80.3391804,5.52603129 80.3391804,7.37411095 C80.3391804,9.22219061 79.799348,10.7197724 78.7196833,11.8827881 C77.6400186,13.0458037 76.2004657,13.6193457 74.3860292,13.6193457 L70.7871468,13.6034139 Z M72.3016765,12.0739687 L74.3860292,12.0739687 C75.7356101,12.0739687 76.8152748,11.659744 77.6100279,10.8312945 C78.4047811,10.002845 78.79466,8.85576102 78.79466,7.35817923 C78.79466,5.87652916 78.4047811,4.72944523 77.6100279,3.90099573 C76.8152748,3.07254623 75.7356101,2.65832148 74.3860292,2.65832148 L72.3016765,2.65832148 L72.3016765,12.0739687 Z M85.2726482,13.8901849 C84.0580255,13.8901849 83.0683328,13.4600284 82.3185657,12.5997155 C81.5538032,11.7394026 81.1789196,10.6560455 81.1789196,9.33371266 C81.1789196,8.09103841 81.5538032,7.02361309 82.288575,6.1314367 C83.0233468,5.23926031 83.9680534,4.79317212 85.1226948,4.79317212 C86.3073269,4.79317212 87.2670289,5.20739687 87.9868053,6.03584637 C88.7065818,6.86429587 89.06647,7.96358464 89.06647,9.34964438 L89.0514747,9.65234708 L82.7084446,9.65234708 C82.7534306,10.51266 83.0233468,11.197724 83.5181931,11.6916074 C84.0130394,12.1854908 84.5978578,12.4403983 85.2576529,12.4403983 C86.3373176,12.4403983 87.0720894,11.9465149 87.4619683,10.9746799 L88.8115492,11.5641536 C88.541633,12.2332859 88.1217634,12.7749644 87.5219497,13.2210526 C86.8921453,13.6671408 86.1573735,13.8901849 85.2726482,13.8901849 Z M87.446973,8.3140825 C87.4169823,7.82019915 87.2070475,7.35817923 86.8171686,6.91209104 C86.4272897,6.46600284 85.8574666,6.24295875 85.0927041,6.24295875 C84.5378764,6.24295875 84.0580255,6.4341394 83.6381559,6.80056899 C83.2332816,7.16699858 82.9483701,7.67681366 82.7984166,8.29815078 L87.446973,8.3140825 Z M92.2154921,13.6034139 L88.9615026,5.06401138 L90.6109904,5.06401138 L92.9802546,11.6916074 L93.0102453,11.6916074 L95.4095002,5.06401138 L97.0140019,5.06401138 L93.7300217,13.6034139 L92.2154921,13.6034139 Z M99.3982614,13.6034139 L97.8837318,13.6034139 L97.8837318,1.12887624 L104.736604,1.12887624 L104.736604,2.65832148 L99.3832661,2.65832148 L99.3832661,6.75277383 L104.211767,6.75277383 L104.211767,8.25035562 L99.3832661,8.25035562 L99.3982614,13.6034139 Z M109.310183,13.8901849 C108.09556,13.8901849 107.105868,13.4600284 106.356101,12.5997155 C105.591338,11.7394026 105.216455,10.6560455 105.216455,9.33371266 C105.216455,8.09103841 105.591338,7.02361309 106.32611,6.1314367 C107.060882,5.23926031 108.005588,4.79317212 109.16023,4.79317212 C110.344862,4.79317212 111.304564,5.20739687 112.02434,6.03584637 C112.744117,6.86429587 113.104005,7.96358464 113.104005,9.34964438 L113.08901,9.65234708 L106.74598,9.65234708 C106.790966,10.51266 107.060882,11.197724 107.555728,11.6916074 C108.050574,12.1854908 108.635393,12.4403983 109.295188,12.4403983 C110.374853,12.4403983 111.109624,11.9465149 111.499503,10.9746799 L112.849084,11.5641536 C112.579168,12.2332859 112.159298,12.7749644 111.559485,13.2210526 C110.914685,13.6671408 110.179913,13.8901849 109.310183,13.8901849 Z M111.469513,8.3140825 C111.439522,7.82019915 111.229587,7.35817923 110.839708,6.91209104 C110.449829,6.46600284 109.880006,6.24295875 109.115244,6.24295875 C108.560416,6.24295875 108.080565,6.4341394 107.660695,6.80056899 C107.255821,7.16699858 106.97091,7.67681366 106.820956,8.29815078 L111.469513,8.3140825 Z M117.077771,13.8901849 C116.17805,13.8901849 115.443278,13.6512091 114.85846,13.1891892 C114.273642,12.7271693 113.838777,12.1376956 113.568861,11.4526316 L114.918441,10.8631579 C115.338311,11.9305832 116.073083,12.4722617 117.092766,12.4722617 C117.557622,12.4722617 117.947501,12.3607397 118.247408,12.1376956 C118.547314,11.9146515 118.697268,11.6278805 118.697268,11.2614509 C118.697268,10.7038407 118.33738,10.3214794 117.602608,10.1302987 L115.983111,9.71607397 C115.473269,9.57268848 114.978423,9.31778094 114.528563,8.91948791 C114.063707,8.5371266 113.838777,8.0113798 113.838777,7.34224751 C113.838777,6.59345661 114.153679,5.97211949 114.783483,5.51009957 C115.413288,5.03214794 116.163055,4.80910384 117.01779,4.80910384 C117.722571,4.80910384 118.36737,4.98435277 118.922198,5.31891892 C119.477026,5.66941679 119.8819,6.14736842 120.121826,6.78463727 L118.802235,7.35817923 C118.502328,6.60938834 117.887519,6.22702703 116.972803,6.22702703 C116.522943,6.22702703 116.14806,6.32261735 115.848153,6.52972973 C115.548246,6.72091038 115.383297,6.99174964 115.383297,7.32631579 C115.383297,7.82019915 115.743185,8.13883357 116.447966,8.3140825 L118.037473,8.71237553 C118.78724,8.90355619 119.357063,9.22219061 119.716951,9.66827881 C120.076839,10.114367 120.256784,10.6401138 120.256784,11.197724 C120.256784,11.9624467 119.956877,12.5997155 119.372058,13.1095306 C118.772245,13.6352774 118.007482,13.8901849 117.077771,13.8901849 Z M124.785377,13.7467994 C123.945638,13.7467994 123.300838,13.5078236 122.850978,13.029872 C122.401118,12.5519203 122.191183,11.8827881 122.191183,11.0065434 L122.191183,6.52972973 L120.781621,6.52972973 L120.781621,5.06401138 L122.191183,5.06401138 L122.191183,2.4512091 L123.705713,2.4512091 L123.705713,5.06401138 L125.670102,5.06401138 L125.670102,6.52972973 L123.705713,6.52972973 L123.705713,10.8790896 C123.705713,11.8031294 124.065601,12.2810811 124.785377,12.2810811 C125.055293,12.2810811 125.295219,12.2332859 125.475163,12.1376956 L126,13.5078236 C125.670102,13.6671408 125.265228,13.7467994 124.785377,13.7467994 Z M33.508724,30.3157895 C32.6539894,30.3157895 31.8292456,30.0130868 31.0045017,29.4236131 C30.1947532,28.8341394 29.6549208,28.0056899 29.4,26.9382646 L30.7795716,26.3487909 C30.9445203,27.0338549 31.2744179,27.6073969 31.7842595,28.0853485 C32.2941012,28.5633001 32.8639242,28.7863442 33.4937287,28.7863442 C34.1535238,28.7863442 34.7083514,28.6110953 35.1732071,28.2446657 C35.6380627,27.8782361 35.8629929,27.3843528 35.8629929,26.7470839 C35.8629929,26.0460882 35.6230674,25.5203414 35.1732071,25.1379801 C34.7083514,24.7556188 33.9735796,24.4051209 32.9688916,24.0864865 C31.934213,23.7359886 31.1394598,23.2899004 30.5996274,22.7322902 C30.0597951,22.1746799 29.7898789,21.4736842 29.7898789,20.6133713 C29.7898789,19.7211949 30.1197765,18.9405405 30.7945669,18.2714083 C31.454362,17.602276 32.3240919,17.2836415 33.4037566,17.2836415 C34.3934492,17.2836415 35.2031978,17.5544808 35.8330022,18.0802276 C36.4628066,18.6059744 36.8676808,19.1795164 37.047625,19.8167852 L35.6680534,20.4221906 C35.563086,20.0238976 35.3231605,19.657468 34.9332816,19.3229018 C34.5434027,18.9883357 34.0485563,18.8130868 33.4337473,18.8130868 C32.8489289,18.8130868 32.3540826,18.9883357 31.9492083,19.3229018 C31.5443341,19.6733997 31.3343993,20.0876245 31.3343993,20.5974395 C31.3343993,21.0594595 31.5293387,21.4577525 31.9042223,21.7763869 C32.2791059,22.0950213 32.8339336,22.3817923 33.5687054,22.6366999 C34.1535238,22.8278805 34.6333747,23.0190612 35.0232536,23.2102418 C35.4131326,23.4014225 35.8030115,23.6403983 36.2078857,23.943101 C36.61276,24.2458037 36.9126669,24.628165 37.1076063,25.0901849 C37.3025458,25.5522048 37.4075132,26.0779516 37.4075132,26.683357 C37.4075132,27.2887624 37.2875505,27.830441 37.047625,28.3083926 C36.8076995,28.7863442 36.5077926,29.1687055 36.1179137,29.4395448 C35.7280348,29.7263158 35.3081652,29.9334282 34.8583049,30.0768137 C34.4384353,30.2361309 33.9735796,30.3157895 33.508724,30.3157895 Z M42.3859671,30.3157895 C41.1713443,30.3157895 40.1816517,29.885633 39.4318845,29.0253201 C38.667122,28.1650071 38.2922384,27.0816501 38.2922384,25.7593172 C38.2922384,24.516643 38.667122,23.4492176 39.4018938,22.5570413 C40.1366656,21.6648649 41.0813722,21.2187767 42.2360137,21.2187767 C43.4206458,21.2187767 44.3803477,21.6330014 45.1001242,22.4614509 C45.8199007,23.2899004 46.1797889,24.3891892 46.1797889,25.7752489 L46.1647935,26.0779516 L39.8217634,26.0779516 C39.8667495,26.9382646 40.1366656,27.6233286 40.631512,28.1172119 C41.1263583,28.6110953 41.7111767,28.8660028 42.3709717,28.8660028 C43.4506364,28.8660028 44.1854083,28.3721195 44.5752872,27.4002845 L45.9248681,27.9897582 C45.6549519,28.6588905 45.2350823,29.200569 44.6352686,29.6466572 C43.9904688,30.0927454 43.255697,30.3157895 42.3859671,30.3157895 Z M44.5452965,24.7396871 C44.5153058,24.2458037 44.305371,23.7837838 43.9154921,23.3376956 C43.5256132,22.8916074 42.9557901,22.6685633 42.1910276,22.6685633 C41.6361999,22.6685633 41.156349,22.859744 40.7364794,23.2261735 C40.3316051,23.5926031 40.0466936,24.1024182 39.8967401,24.7237553 L44.5452965,24.7237553 L44.5452965,24.7396871 Z M49.7186898,30.3157895 C48.8639553,30.3157895 48.1591742,30.0608819 47.5743558,29.5351351 C47.0045328,29.0093883 46.7196212,28.3243243 46.7196212,27.4640114 C46.7196212,26.5399716 47.0645141,25.8071124 47.7393046,25.2813656 C48.414095,24.7556188 49.2538342,24.4847795 50.2435269,24.4847795 C51.1282521,24.4847795 51.8630239,24.6600284 52.4178516,25.0105263 L52.4178516,24.7715505 C52.4178516,24.1502134 52.2229121,23.6403983 51.8180379,23.258037 C51.4131636,22.8756757 50.9183173,22.684495 50.3185036,22.684495 C49.8836386,22.684495 49.4787644,22.7960171 49.1338715,23.0190612 C48.7739832,23.2421053 48.5340577,23.544808 48.3990997,23.9271693 L47.0195281,23.3058321 C47.1994722,22.7960171 47.5743558,22.3180654 48.1141881,21.887909 C48.6540205,21.4577525 49.3887923,21.2347084 50.2735175,21.2347084 C51.3081962,21.2347084 52.1479354,21.5533428 52.8377212,22.1906117 C53.5125116,22.8278805 53.8574045,23.7359886 53.8574045,24.8990043 L53.8574045,30.0608819 L52.4178516,30.0608819 L52.4178516,28.8819346 L52.3578702,28.8819346 C51.7580565,29.8219061 50.8733313,30.3157895 49.7186898,30.3157895 Z M49.9736107,28.8500711 C50.6034151,28.8500711 51.1582428,28.6110953 51.6680844,28.1172119 C52.1779261,27.6233286 52.4328469,27.0338549 52.4328469,26.3647226 C52.0129773,25.998293 51.3681776,25.8071124 50.513443,25.8071124 C49.7786712,25.8071124 49.2238435,25.9823613 48.8639553,26.3169275 C48.4890717,26.6514936 48.3091276,27.0497866 48.3091276,27.4958748 C48.3091276,27.9100996 48.4740764,28.2446657 48.8189693,28.4836415 C49.1488668,28.7226174 49.5237504,28.8500711 49.9736107,28.8500711 Z M58.2210494,30.3157895 C57.3213288,30.3157895 56.586557,30.0768137 56.0017386,29.6147937 C55.4169202,29.1527738 54.9820553,28.5633001 54.7121391,27.8782361 L56.06172,27.2887624 C56.4815896,28.3561878 57.2163614,28.8978663 58.2360447,28.8978663 C58.7009003,28.8978663 59.0907793,28.7863442 59.3906861,28.5633001 C59.690593,28.340256 59.8405464,28.0534851 59.8405464,27.6870555 C59.8405464,27.1294452 59.4806582,26.7470839 58.7458864,26.5559033 L57.1263893,26.1416785 C56.6165477,25.998293 56.1217013,25.7433855 55.671841,25.3450925 C55.2069854,24.9627312 54.9820553,24.4369844 54.9820553,23.7678521 C54.9820553,23.0190612 55.2969575,22.397724 55.9267619,21.9357041 C56.5565663,21.4577525 57.3063334,21.2347084 58.161068,21.2347084 C58.8658491,21.2347084 59.5106489,21.4099573 60.0654766,21.7445235 C60.6203043,22.0950213 61.0251785,22.572973 61.265104,23.2102418 L59.9455138,23.7837838 C59.645607,23.0349929 59.0307979,22.6526316 58.116082,22.6526316 C57.6662217,22.6526316 57.2913381,22.7482219 56.9914312,22.9553343 C56.6915244,23.1465149 56.5265756,23.4173542 56.5265756,23.7519203 C56.5265756,24.2458037 56.8864638,24.5644381 57.591245,24.7396871 L59.1807513,25.1379801 C59.9305185,25.3291607 60.4853462,25.6477952 60.8602297,26.0938834 C61.220118,26.5399716 61.4000621,27.0657183 61.4000621,27.6233286 C61.4000621,28.3880512 61.1001552,29.0253201 60.5153369,29.5351351 C59.9005278,30.0608819 59.1507606,30.3157895 58.2210494,30.3157895 Z M63.1245265,22.5092461 C63.9042844,21.6489331 64.893977,21.2187767 66.0936045,21.2187767 C67.2932319,21.2187767 68.2829246,21.6489331 69.0626824,22.5092461 C69.8424402,23.369559 70.2323192,24.4529161 70.2323192,25.7593172 C70.2323192,27.0657183 69.8424402,28.1490754 69.0626824,29.0093883 C68.2829246,29.8697013 67.2932319,30.2998578 66.0936045,30.2998578 C64.893977,30.2998578 63.9042844,29.8697013 63.1245265,29.0093883 C62.3447687,28.1490754 61.9548898,27.0657183 61.9548898,25.7593172 C61.9548898,24.4688478 62.3447687,23.3854908 63.1245265,22.5092461 Z M64.2491773,28.0056899 C64.7740143,28.5633001 65.3888233,28.8500711 66.0936045,28.8500711 C66.7983856,28.8500711 67.4131947,28.5633001 67.9380317,28.0056899 C68.4628687,27.4480797 68.7177895,26.6992888 68.7177895,25.7593172 C68.7177895,24.8352774 68.4628687,24.0864865 67.9380317,23.5129445 C67.4131947,22.9553343 66.7983856,22.6685633 66.0936045,22.6685633 C65.3888233,22.6685633 64.7740143,22.9553343 64.2491773,23.5129445 C63.7243403,24.0705548 63.4694194,24.8193457 63.4694194,25.7593172 C63.4694194,26.6992888 63.7243403,27.4480797 64.2491773,28.0056899 Z M72.7365414,21.4896159 L72.7365414,22.6685633 L72.7965228,22.6685633 C73.021453,22.2543385 73.3663459,21.9197724 73.8312015,21.6330014 C74.2960571,21.3462304 74.8058988,21.202845 75.3457311,21.202845 C76.3354238,21.202845 77.1001863,21.5214794 77.6250233,22.1746799 C78.1498603,22.8278805 78.4047811,23.7041252 78.4047811,24.7874822 L78.4047811,30.0130868 L76.8902515,30.0130868 L76.8902515,25.026458 C76.8902515,23.4492176 76.2304564,22.6526316 74.9108662,22.6526316 C74.2810618,22.6526316 73.7862155,22.9234708 73.3813412,23.4492176 C72.9914623,23.9749644 72.7965228,24.5963016 72.7965228,25.2813656 L72.7965228,29.997155 L71.2819932,29.997155 L71.2819932,21.4577525 L72.7365414,21.4577525 L72.7365414,21.4896159 Z M90.6859671,30.0290185 L83.5331885,30.0290185 L83.5331885,28.4199147 C85.6775225,26.1257468 87.0420987,24.6440967 87.6569078,23.943101 C88.1967401,23.3058321 88.5566284,22.8119488 88.7365725,22.4933144 C88.9165166,22.1587482 89.021484,21.7604552 89.021484,21.2665718 C89.021484,20.7726885 88.8415399,20.3266003 88.4666563,19.944239 C88.0917727,19.5618777 87.5969264,19.370697 86.967122,19.370697 C86.397299,19.370697 85.9324433,19.5459459 85.5875505,19.8964438 C85.2426576,20.2469417 85.0177274,20.629303 84.91276,21.0435277 L83.5331885,20.4540541 C83.7131326,19.8327169 84.1030115,19.2273115 84.7028252,18.6697013 C85.2876436,18.112091 86.0524061,17.8412518 86.9971127,17.8412518 C88.0317914,17.8412518 88.8865259,18.1758179 89.5613164,18.8449502 C90.2211115,19.5140825 90.5660043,20.3266003 90.5660043,21.2665718 C90.5660043,22.4295875 89.9661906,23.6722617 88.7815585,24.9945946 L85.4975784,28.4995733 L90.7009624,28.4995733 L90.6859671,30.0290185 Z M99.3232847,28.515505 C98.4985408,29.7103841 97.4038808,30.3157895 96.0542999,30.3157895 C94.704719,30.3157895 93.6250543,29.7103841 92.7853151,28.515505 C91.9605713,27.3206259 91.5407016,25.8389758 91.5407016,24.0705548 C91.5407016,22.286202 91.9605713,20.8045519 92.7853151,19.6256046 C93.610059,18.4307255 94.704719,17.8412518 96.0542999,17.8412518 C97.4038808,17.8412518 98.4835455,18.4307255 99.3232847,19.6256046 C100.148029,20.8204836 100.567898,22.3021337 100.567898,24.0705548 C100.567898,25.8389758 100.148029,27.3206259 99.3232847,28.515505 Z M96.0542999,28.7863442 C96.9540205,28.7863442 97.673797,28.340256 98.2136293,27.4480797 C98.7534617,26.5559033 99.0233778,25.4406828 99.0233778,24.0864865 C99.0233778,22.7322902 98.7534617,21.601138 98.2136293,20.7089616 C97.673797,19.8167852 96.9540205,19.370697 96.0542999,19.370697 C95.139584,19.370697 94.4198075,19.8167852 93.8949705,20.7089616 C93.3551382,21.601138 93.085222,22.7163585 93.085222,24.0864865 C93.085222,25.4406828 93.3551382,26.5559033 93.8949705,27.4480797 C94.4348029,28.340256 95.1545793,28.7863442 96.0542999,28.7863442 Z M105.351413,30.0290185 L103.836883,30.0290185 L103.836883,20.1035562 L101.662558,21.1072546 L101.092735,19.7530583 L104.391711,18.112091 L105.366408,18.112091 L105.366408,30.0290185 L105.351413,30.0290185 Z" id="XMLID_7_" fill-rule="nonzero"></path>
            <path d="M16.6289902,20.32 L18.0586319,17.696 C18.3144625,17.248 18.48,16.704 18.48,16.128 C18.48,15.552 18.3445603,15.024 18.0586319,14.56 L10.1278827,0 L5.56807818,0 L16.6289902,20.32 Z M8.1865798,16.928 L0,32 L4.5447557,32 L10.4740065,21.12 L8.1865798,16.928 Z M13.9201954,25.28 L16.011987,21.456 L4.37921824,0 L0.210684039,0 L13.9201954,25.28 Z M11.0759609,22.256 L5.76371336,32 L10.2783713,32 L13.3332899,26.4 L11.0759609,22.256 Z" id="Shape" fill-rule="nonzero"></path>
            <text id="8" font-family="ProductSans-Regular, Product Sans" font-size="17" font-weight="normal">
                <tspan x="106.876" y="30">8</tspan>
            </text>
        </g>
    </g>
</svg>